<?xml version="1.0" encoding="utf-8"?>
<!DOCTYPE svg PUBLIC "-//W3C//DTD SVG 20010904//EN" "http://www.w3.org/TR/2001/REC-SVG-20010904/DTD/svg10.dtd">
<svg version="1.0" xmlns="http://www.w3.org/2000/svg" width="474px" height="614px" viewBox="0 0 474 614" preserveAspectRatio="xMidYMid meet">
 <g fill="#eaf6fb">
  <path d="M226.2 455.8 c-10.8 -1.3 -28.2 -6 -40.2 -10.6 -47.7 -18.7 -85.7 -61.4 -98.5 -110.9 -11.3 -43.2 -3.8 -94.2 19 -129.3 8.5 -13.3 30.6 -35.2 46.2 -46.1 7 -4.8 7.3 -4.9 7.3 -2.6 0 1.4 -1.6 5.8 -3.5 9.9 -8.2 17.3 -8.4 34.3 -0.6 54.4 15.9 40.8 56.2 70.6 100.6 74.3 12.2 1.1 23.6 4.5 36 10.9 16.9 8.7 33.4 32.4 38.2 54.6 2.1 10 1.3 28.7 -1.7 38.1 -9.2 28.9 -31.1 49.5 -60.2 56.5 -9.1 2.2 -28.7 2.6 -42.6 0.8z m6.3 -35.7 c6.3 -3.1 11.8 -8.1 12.9 -11.7 0.9 -3 -2.4 -6.8 -7.4 -8.4 -3.2 -1.1 -5.3 -1.1 -10.4 -0.2 -8.6 1.6 -23.1 1.5 -28.8 -0.2 -6.2 -1.9 -8.4 -3.1 -13.9 -7.7 -5 -4.2 -7 -4.7 -8.8 -2.5 -5.7 6.8 3.4 21.1 18.3 28.9 12.6 6.5 27.1 7.2 38.1 1.8z m-78.3 -144 l3.3 -3 -1.8 -3.4 c-1 -1.9 -4.8 -6.8 -8.4 -10.8 -11.9 -13.5 -17.2 -20.4 -20.1 -26.7 -2.9 -6.1 -3 -6.2 -3.6 -3.1 -2.5 12.7 2.4 29.9 11.4 40.2 3.4 3.8 12.6 9.7 15.2 9.7 0.4 0 2.2 -1.3 4 -2.9z"/>
 </g>
 <g fill="#07392c">
  <path d="M394.1 425 c-8 -49.7 -28.2 -103.7 -54.5 -145.9 -18.4 -29.4 -27.5 -38.2 -45.4 -43.8 -6.7 -2.1 -9.6 -2.5 -15.5 -2.1 -24.3 1.6 -39.8 24.6 -30.7 45.5 4.1 9.3 12 16.3 20.2 17.9 l4.3 0.8 -5.5 0.5 c-32.6 3.4 -74.2 -15.8 -97 -44.8 -23 -29.1 -29.3 -63 -16.6 -89.7 4.1 -8.6 6.4 -10.5 21.6 -17.8 38 -18.2 88.7 -16.3 131.2 4.9 45.9 22.9 77.9 64.3 88.9 115.2 2.8 13.2 3.2 31.8 2.2 110.3 l-0.8 63.5 -2.4 -14.5z"/>
  <path d="M141.2 279.4 c-12.7 -6.3 -21.2 -23.1 -21.2 -41.9 0 -7.8 2.6 -22.5 4.1 -22.5 0.4 0 1 1.2 1.4 2.7 0.3 1.5 2.2 6.1 4.1 10.2 3.4 7.4 8.3 14 20.8 28.1 10.9 12.3 12.6 18.3 6.4 23.5 -3.9 3.3 -8.9 3.2 -15.6 -0.1z"/>
 </g>
 <g fill="#ffffff" stroke="#ffffff" stroke-width="1">
  <path d="M201.5 425.2 c-20.1 -6.1 -33.5 -21.2 -30.2 -34.2 2 -8.1 7.9 -9.1 15.9 -2.7 9.8 8.1 16.8 10.3 29 9.3 21.6 -1.8 22.2 -1.8 26 -0.2 5.3 2.2 7.2 5.5 6.5 11.2 -0.6 5.8 -4.8 10.3 -13.4 14.6 -5.5 2.7 -7.4 3.1 -17 3.4 -8.4 0.3 -12.1 0 -16.8 -1.4z"/>
 </g>
</svg>